<svg width="25" height="25" viewBox="0 0 25 25" fill="none" xmlns="http://www.w3.org/2000/svg">
<path d="M10.6178 17.2795C10.4865 17.2798 10.3565 17.2542 10.2351 17.204C10.1138 17.1539 10.0036 17.0804 9.91076 16.9875L5.66876 12.7445C5.57319 12.6524 5.49693 12.5421 5.44444 12.4201C5.39194 12.2981 5.36427 12.1669 5.36302 12.0342C5.36177 11.9014 5.38698 11.7697 5.43718 11.6468C5.48737 11.5238 5.56154 11.4121 5.65537 11.3182C5.74919 11.2242 5.86079 11.1499 5.98365 11.0995C6.10651 11.0491 6.23817 11.0237 6.37095 11.0248C6.50373 11.0259 6.63497 11.0534 6.75701 11.1057C6.87905 11.158 6.98945 11.2341 7.08176 11.3295L10.6168 14.8645L16.9818 8.50155C17.1693 8.31391 17.4236 8.20844 17.6889 8.20834C17.9542 8.20825 18.2086 8.31354 18.3963 8.50105C18.5839 8.68855 18.6894 8.94292 18.6895 9.20819C18.6896 9.47346 18.5843 9.72791 18.3968 9.91555L11.3248 16.9875C11.2319 17.0804 11.1217 17.1539 11.0004 17.204C10.8791 17.2542 10.749 17.2798 10.6178 17.2795Z" fill="#2FAB73"/>
</svg>
