<svg width="25" height="25" viewBox="0 0 25 25" fill="none" xmlns="http://www.w3.org/2000/svg">
<path d="M10.7562 17.2795C10.6249 17.2798 10.4949 17.2542 10.3736 17.204C10.2523 17.1539 10.142 17.0804 10.0492 16.9875L5.80721 12.7445C5.71163 12.6524 5.63537 12.5421 5.58288 12.4201C5.53039 12.2981 5.50271 12.1669 5.50146 12.0342C5.50022 11.9014 5.52543 11.7697 5.57562 11.6468C5.62581 11.5238 5.69999 11.4121 5.79381 11.3182C5.88764 11.2242 5.99924 11.1499 6.1221 11.0995C6.24495 11.0491 6.37662 11.0237 6.50939 11.0248C6.64217 11.0259 6.77341 11.0534 6.89545 11.1057C7.01749 11.158 7.12789 11.2341 7.22021 11.3295L10.7552 14.8645L17.1202 8.50155C17.3077 8.31391 17.5621 8.20844 17.8274 8.20834C18.0926 8.20825 18.3471 8.31354 18.5347 8.50105C18.7223 8.68855 18.8278 8.94292 18.8279 9.20819C18.828 9.47346 18.7227 9.72791 18.5352 9.91555L11.4632 16.9875C11.3704 17.0804 11.2601 17.1539 11.1388 17.204C11.0175 17.2542 10.8875 17.2798 10.7562 17.2795Z" fill="#2FAB73"/>
</svg>
