<svg width="25" height="25" viewBox="0 0 25 25" fill="none" xmlns="http://www.w3.org/2000/svg">
<path d="M10.5761 17.2795C10.4448 17.2798 10.3148 17.2542 10.1935 17.204C10.0721 17.1539 9.9619 17.0804 9.86908 16.9875L5.62708 12.7445C5.5315 12.6524 5.45524 12.5421 5.40275 12.4201C5.35026 12.2981 5.32258 12.1669 5.32133 12.0342C5.32009 11.9014 5.3453 11.7697 5.39549 11.6468C5.44568 11.5238 5.51986 11.4121 5.61368 11.3182C5.70751 11.2242 5.81911 11.1499 5.94197 11.0995C6.06482 11.0491 6.19649 11.0237 6.32926 11.0248C6.46204 11.0259 6.59328 11.0534 6.71532 11.1057C6.83736 11.158 6.94776 11.2341 7.04008 11.3295L10.5751 14.8645L16.9401 8.50155C17.1276 8.31391 17.382 8.20844 17.6472 8.20834C17.9125 8.20825 18.1669 8.31354 18.3546 8.50105C18.5422 8.68855 18.6477 8.94292 18.6478 9.20819C18.6479 9.47346 18.5426 9.72791 18.3551 9.91555L11.2831 16.9875C11.1903 17.0804 11.08 17.1539 10.9587 17.204C10.8374 17.2542 10.7073 17.2798 10.5761 17.2795Z" fill="#2FAB73"/>
</svg>
