<svg width="25" height="25" viewBox="0 0 25 25" fill="none" xmlns="http://www.w3.org/2000/svg">
<path d="M10.7563 17.2795C10.625 17.2798 10.495 17.2542 10.3736 17.204C10.2523 17.1539 10.1421 17.0804 10.0493 16.9875L5.80725 12.7445C5.71168 12.6524 5.63542 12.5421 5.58293 12.4201C5.53043 12.2981 5.50276 12.1669 5.50151 12.0342C5.50026 11.9014 5.52547 11.7697 5.57567 11.6468C5.62586 11.5238 5.70003 11.4121 5.79386 11.3182C5.88768 11.2242 5.99928 11.1499 6.12214 11.0995C6.245 11.0491 6.37666 11.0237 6.50944 11.0248C6.64222 11.0259 6.77346 11.0534 6.8955 11.1057C7.01754 11.158 7.12794 11.2341 7.22025 11.3295L10.7553 14.8645L17.1203 8.50155C17.3078 8.31391 17.5621 8.20844 17.8274 8.20834C18.0927 8.20825 18.3471 8.31354 18.5348 8.50105C18.7224 8.68855 18.8279 8.94292 18.828 9.20819C18.828 9.47346 18.7228 9.72791 18.5353 9.91555L11.4633 16.9875C11.3704 17.0804 11.2602 17.1539 11.1389 17.204C11.0175 17.2542 10.8875 17.2798 10.7563 17.2795Z" fill="#2FAB73"/>
</svg>
